Another great video from Taylor. Luv her.
General
ID                               : 1 (0x1)
Complete name                    : C:\Users\***\Downloads\Taylor Swift - White Horse Palladia HD (MV) 1080i.ts
Format                           : MPEG-TS
Format/Info                      : Advanced Video Codec
File size                        : 414 MiB
Duration                         : 4mn 3s
Overall bit rate                 : 14.3 Mbps

Video
ID                               : 4113 (0x1011)
Menu ID                          : 1 (0x1)
Format                           : AVC
Format/Info                      : Advanced Video Codec
Format profile                   : Main@L4.0
Format settings, CABAC           : Yes
Format settings, ReFrames        : 4 frames
Codec ID                         : 27
Duration                         : 4mn 3s
Bit rate mode                    : Variable
Bit rate                         : 13.2 Mbps
Maximum bit rate                 : 19.2 Mbps
Width                            : 1 920 pixels
Height                           : 1 080 pixels
Display aspect ratio             : 16:9
Frame rate                       : 29.970 fps
Color space                      : YUV
Chroma subsampling               : 4:2:0
Bit depth                        : 8 bits
Scan type                        : Interlaced
Scan order                       : Top Field First
Bits/(Pixel*Frame)               : 0.212
Stream size                      : 382 MiB (92%)

Audio
ID                               : 4352 (0x1100)
Menu ID                          : 1 (0x1)
Format                           : AC-3
Format/Info                      : Audio Coding 3
Mode extension                   : CM (complete main)
Codec ID                         : 129
Duration                         : 4mn 3s
Bit rate mode                    : Constant
Bit rate                         : 384 Kbps
Channel(s)                       : 2 channels
Channel positions                : Front: L R
Sampling rate                    : 48.0 KHz
Bit depth                        : 16 bits
Compression mode                 : Lossy
Stream size                      : 11.1 MiB (3%)
Language                         : English

P.S. Her "Ain't nothing about you" cover much better than original song ^_^. 